<?xml version="1.0" encoding="UTF-8"?>
<svg xmlns="http://www.w3.org/2000/svg" width="1920" height="1080" viewBox="0 0 1920 1080" role="img" aria-labelledby="title desc">
  <title id="title">Human-in-the-Loop Gate</title>
  <desc id="desc">A person reviews risky steps before execution.</desc>
  <defs>
    <marker id="arrow" markerWidth="18" markerHeight="18" refX="13" refY="5" orient="auto" markerUnits="strokeWidth">
      <path d="M0,0 L14,5 L0,10 Z" fill="#475467"/>
    </marker>
    <marker id="arrow-light" markerWidth="18" markerHeight="18" refX="13" refY="5" orient="auto" markerUnits="strokeWidth">
      <path d="M0,0 L14,5 L0,10 Z" fill="#94a3b8"/>
    </marker>
    <filter id="soft-shadow" x="-20%" y="-20%" width="140%" height="140%">
      <feDropShadow dx="0" dy="10" stdDeviation="10" flood-color="#0f172a" flood-opacity="0.12"/>
    </filter>
  </defs>
  <style>
    text { font-family: Inter, ui-sans-serif, system-ui, -apple-system, BlinkMacSystemFont, "Segoe UI", Arial, sans-serif; letter-spacing: 0; }
    .bg { fill: #f8fafc; }
    .grid-line { stroke: #e5e7eb; stroke-width: 1; opacity: 0.62; }
    .title { fill: #111827; font-size: 64px; font-weight: 820; }
    .subtitle { fill: #667085; font-size: 28px; font-weight: 560; }
    .footer { fill: #344054; font-size: 22px; font-weight: 650; }
    .muted { fill: #667085; }
    .node-label { fill: #ffffff; font-size: 30px; font-weight: 820; text-anchor: middle; dominant-baseline: middle; }
    .node-role { fill: #344054; font-size: 23px; font-weight: 700; text-anchor: middle; }
    .box-title { fill: #111827; font-size: 28px; font-weight: 800; text-anchor: middle; dominant-baseline: middle; }
    .box-subtitle { fill: #667085; font-size: 20px; font-weight: 650; text-anchor: middle; }
    .tiny { fill: #667085; font-size: 18px; font-weight: 700; text-anchor: middle; }
    .edge { stroke: #667085; stroke-width: 5; fill: none; stroke-linecap: round; stroke-linejoin: round; marker-end: url(#arrow); }
    .edge-soft { stroke: #cbd5e1; stroke-width: 4; fill: none; stroke-linecap: round; stroke-linejoin: round; marker-end: url(#arrow-light); }
    .edge-noarrow { stroke: #667085; stroke-width: 5; fill: none; stroke-linecap: round; stroke-linejoin: round; }
    .edge-soft-noarrow { stroke: #cbd5e1; stroke-width: 4; fill: none; stroke-linecap: round; stroke-linejoin: round; }
    .dash { stroke-dasharray: 14 16; }
    .card { fill: #ffffff; stroke: #d0d5dd; stroke-width: 3; filter: url(#soft-shadow); }
    .ghost { opacity: 0.26; }
    .packet { stroke: #ffffff; stroke-width: 3; }
    .ring { fill: none; stroke: #d0d5dd; stroke-width: 3; }
  </style>
  <rect class="bg" width="1920" height="1080"/>
  <g id="grid"><line class="grid-line" x1="120" y1="198" x2="120" y2="990"/>
<line class="grid-line" x1="240" y1="198" x2="240" y2="990"/>
<line class="grid-line" x1="360" y1="198" x2="360" y2="990"/>
<line class="grid-line" x1="480" y1="198" x2="480" y2="990"/>
<line class="grid-line" x1="600" y1="198" x2="600" y2="990"/>
<line class="grid-line" x1="720" y1="198" x2="720" y2="990"/>
<line class="grid-line" x1="840" y1="198" x2="840" y2="990"/>
<line class="grid-line" x1="960" y1="198" x2="960" y2="990"/>
<line class="grid-line" x1="1080" y1="198" x2="1080" y2="990"/>
<line class="grid-line" x1="1200" y1="198" x2="1200" y2="990"/>
<line class="grid-line" x1="1320" y1="198" x2="1320" y2="990"/>
<line class="grid-line" x1="1440" y1="198" x2="1440" y2="990"/>
<line class="grid-line" x1="1560" y1="198" x2="1560" y2="990"/>
<line class="grid-line" x1="1680" y1="198" x2="1680" y2="990"/>
<line class="grid-line" x1="1800" y1="198" x2="1800" y2="990"/>
<line class="grid-line" x1="70" y1="240" x2="1850" y2="240"/>
<line class="grid-line" x1="70" y1="360" x2="1850" y2="360"/>
<line class="grid-line" x1="70" y1="480" x2="1850" y2="480"/>
<line class="grid-line" x1="70" y1="600" x2="1850" y2="600"/>
<line class="grid-line" x1="70" y1="720" x2="1850" y2="720"/>
<line class="grid-line" x1="70" y1="840" x2="1850" y2="840"/>
<line class="grid-line" x1="70" y1="960" x2="1850" y2="960"/></g>
  <g id="header">
    <text class="title" x="96" y="104">Human-in-the-Loop Gate</text>
    <text class="subtitle" x="96" y="150">A person reviews risky steps before execution.</text>
  </g>
  <g id="architecture" data-slug="23-human-in-loop-gate">

      <g id="agent" class="agent" transform="translate(430 525)" opacity="1">
    <circle r="58" fill="#2563eb" stroke="#111827" stroke-width="3"/>
    <circle r="43" fill="none" stroke="#ffffff" stroke-width="3" opacity="0.35"/>
    <text class="node-label" y="2">A</text>
    <text class="node-role" y="94">agent</text>
  </g>
      <g id="proposal" class="box">
    <rect class="card" x="720" y="455" width="260" height="140" rx="18" fill="#ffffff" stroke="#d0d5dd"/>
    <text class="box-title" x="850" y="513">Proposal</text>
    <text class="box-subtitle" x="850" y="553">action + evidence</text>
  </g>
      <g id="human" class="diamond">
    <polygon points="1190,430 1285,525 1190,620 1095,525" fill="#d97706" stroke="#111827" stroke-width="3" filter="url(#soft-shadow)"/>
    <text class="node-label" x="1190" y="527">Human</text>
  </g>
      <g id="action" class="box">
    <rect class="card" x="1505" y="455" width="260" height="140" rx="18" fill="#ffffff" stroke="#d0d5dd"/>
    <text class="box-title" x="1635" y="513">Action</text>
    <text class="box-subtitle" x="1635" y="553">approved</text>
  </g>
      <line class="edge" x1="488" y1="525" x2="720" y2="525" />
      <line class="edge" x1="980" y1="525" x2="1095" y2="525" />
      <line class="edge" x1="1285" y1="525" x2="1505" y2="525" />
      <path class="edge-soft dash" d="M1190 620 C1090 760 750 730 520 590" />
      <text class="tiny" x="960" y="800">reject or clarify path returns to the agent</text>

  </g>
  <g id="footer">
    <text class="footer" x="96" y="1016">Good: high-stakes, irreversible, ambiguous actions.</text>
    <text class="footer muted" x="96" y="1048">Bad: throughput loss and operator burden.</text>
  </g>
</svg>
